# xmcd
#
# Track frame offsets: 
#        150
#        20457
#        43291
#        64725
#        97516
#        122989
#        148846
#        170160
#        201470
#        217358
#        242934
#        264135
#
# Disc length: 3986 seconds
#
# Revision: 0
# Processed by: cddbd v1.5.2PL0 Copyright (c) Steve Scherf et al.
# Submitted via: ExactAudioCopyFreeDBPlugin 1.0
#
DISCID=bd0f900c
DTITLE=Jimmy Dawkins - Storyville - The Chicago Blues Box 2 - CD3
DYEAR=2017
DGENRE=Blues
TTITLE0=Way She Walks
TTITLE1=Rock Me Baby
TTITLE2=I Wonder Why
TTITLE3=Cold Sweet Blues
TTITLE4=Driving Wheel
TTITLE5=Will My Baby Home Tonight
TTITLE6=Big Duke's
TTITLE7=Hard Road To Travel
TTITLE8=J.D.'s Jam
TTITLE9=Nature Ball
TTITLE10=Pretty Woman
TTITLE11=Ode To Billy Joe
EXTD=
EXTT0=
EXTT1=
EXTT2=
EXTT3=
EXTT4=
EXTT5=
EXTT6=
EXTT7=
EXTT8=
EXTT9=
EXTT10=
EXTT11=
PLAYORDER=
